<mxfile host="Electron" agent="Mozilla/5.0 (Windows NT 10.0; Win64; x64) AppleWebKit/537.36 (KHTML, like Gecko) draw.io/27.0.9 Chrome/134.0.6998.205 Electron/35.4.0 Safari/537.36" version="27.0.9">
  <diagram name="Page-1" id="B68G69nyZDmtwaSJx-K-">
    <mxGraphModel dx="1042" dy="626" grid="1" gridSize="10" guides="1" tooltips="1" connect="1" arrows="1" fold="1" page="1" pageScale="1" pageWidth="850" pageHeight="1100" math="0" shadow="0">
      <root>
        <mxCell id="0" />
        <mxCell id="1" parent="0" />
        <mxCell id="9UhjAVeoC2yW7LXFhDXO-1" value="Staff Panel" style="text;strokeColor=none;align=center;fillColor=none;html=1;verticalAlign=middle;whiteSpace=wrap;rounded=0;strokeWidth=6;fontSize=15;fontStyle=5" vertex="1" parent="1">
          <mxGeometry x="360" y="40" width="90" height="30" as="geometry" />
        </mxCell>
        <mxCell id="9UhjAVeoC2yW7LXFhDXO-108" value="" style="edgeStyle=orthogonalEdgeStyle;rounded=0;orthogonalLoop=1;jettySize=auto;html=1;" edge="1" parent="1" source="9UhjAVeoC2yW7LXFhDXO-2">
          <mxGeometry relative="1" as="geometry">
            <mxPoint x="430" y="220" as="targetPoint" />
          </mxGeometry>
        </mxCell>
        <mxCell id="9UhjAVeoC2yW7LXFhDXO-2" value="" style="whiteSpace=wrap;html=1;aspect=fixed;labelBackgroundColor=none;" vertex="1" parent="1">
          <mxGeometry x="80" y="110" width="220" height="220" as="geometry" />
        </mxCell>
        <mxCell id="9UhjAVeoC2yW7LXFhDXO-3" value="username" style="text;strokeColor=none;align=center;fillColor=none;html=1;verticalAlign=middle;whiteSpace=wrap;rounded=0;labelBackgroundColor=none;" vertex="1" parent="1">
          <mxGeometry x="80" y="177.5" width="70" height="30" as="geometry" />
        </mxCell>
        <mxCell id="9UhjAVeoC2yW7LXFhDXO-4" value="password" style="text;strokeColor=none;align=center;fillColor=none;html=1;verticalAlign=middle;whiteSpace=wrap;rounded=0;labelBackgroundColor=none;" vertex="1" parent="1">
          <mxGeometry x="85" y="217.5" width="60" height="30" as="geometry" />
        </mxCell>
        <mxCell id="9UhjAVeoC2yW7LXFhDXO-5" value="" style="rounded=1;whiteSpace=wrap;html=1;labelBackgroundColor=none;" vertex="1" parent="1">
          <mxGeometry x="150" y="177.5" width="130" height="30" as="geometry" />
        </mxCell>
        <mxCell id="9UhjAVeoC2yW7LXFhDXO-6" value="" style="rounded=1;whiteSpace=wrap;html=1;labelBackgroundColor=none;" vertex="1" parent="1">
          <mxGeometry x="150" y="217.5" width="130" height="30" as="geometry" />
        </mxCell>
        <mxCell id="9UhjAVeoC2yW7LXFhDXO-7" value="" style="rounded=1;whiteSpace=wrap;html=1;labelBackgroundColor=none;" vertex="1" parent="1">
          <mxGeometry x="150" y="257.5" width="65" height="20" as="geometry" />
        </mxCell>
        <mxCell id="9UhjAVeoC2yW7LXFhDXO-8" value="Login" style="text;strokeColor=none;align=center;fillColor=none;html=1;verticalAlign=middle;whiteSpace=wrap;rounded=0;labelBackgroundColor=none;" vertex="1" parent="1">
          <mxGeometry x="150" y="252.5" width="60" height="30" as="geometry" />
        </mxCell>
        <mxCell id="9UhjAVeoC2yW7LXFhDXO-9" value="Resister" style="text;strokeColor=none;align=center;fillColor=none;html=1;verticalAlign=middle;whiteSpace=wrap;rounded=0;labelBackgroundColor=none;fontColor=#4AA2FF;" vertex="1" parent="1">
          <mxGeometry x="80" y="277.5" width="60" height="30" as="geometry" />
        </mxCell>
        <mxCell id="9UhjAVeoC2yW7LXFhDXO-10" value="Forget Password?" style="text;strokeColor=none;align=center;fillColor=none;html=1;verticalAlign=middle;whiteSpace=wrap;rounded=0;labelBackgroundColor=none;fontColor=#4AA2FF;" vertex="1" parent="1">
          <mxGeometry x="170" y="277.5" width="130" height="30" as="geometry" />
        </mxCell>
        <mxCell id="9UhjAVeoC2yW7LXFhDXO-11" value="" style="rounded=0;whiteSpace=wrap;html=1;" vertex="1" parent="1">
          <mxGeometry x="95" y="127.5" width="175" height="30" as="geometry" />
        </mxCell>
        <mxCell id="9UhjAVeoC2yW7LXFhDXO-12" value="Feedback System" style="text;strokeColor=none;align=center;fillColor=none;html=1;verticalAlign=middle;whiteSpace=wrap;rounded=0;fontStyle=1" vertex="1" parent="1">
          <mxGeometry x="130" y="127.5" width="110" height="30" as="geometry" />
        </mxCell>
        <mxCell id="9UhjAVeoC2yW7LXFhDXO-109" value="" style="edgeStyle=orthogonalEdgeStyle;rounded=0;orthogonalLoop=1;jettySize=auto;html=1;" edge="1" parent="1" source="9UhjAVeoC2yW7LXFhDXO-13" target="9UhjAVeoC2yW7LXFhDXO-83">
          <mxGeometry relative="1" as="geometry">
            <Array as="points">
              <mxPoint x="520" y="420" />
              <mxPoint x="520" y="420" />
            </Array>
          </mxGeometry>
        </mxCell>
        <mxCell id="9UhjAVeoC2yW7LXFhDXO-13" value="" style="rounded=0;whiteSpace=wrap;html=1;" vertex="1" parent="1">
          <mxGeometry x="420" y="110" width="200" height="260" as="geometry" />
        </mxCell>
        <mxCell id="9UhjAVeoC2yW7LXFhDXO-81" value="" style="rounded=0;whiteSpace=wrap;html=1;" vertex="1" parent="1">
          <mxGeometry x="385" y="440" width="270" height="240" as="geometry" />
        </mxCell>
        <mxCell id="9UhjAVeoC2yW7LXFhDXO-82" value="" style="rounded=0;whiteSpace=wrap;html=1;" vertex="1" parent="1">
          <mxGeometry x="400" y="450" width="240" height="30" as="geometry" />
        </mxCell>
        <mxCell id="9UhjAVeoC2yW7LXFhDXO-83" value="Faculty Name:" style="text;strokeColor=none;align=center;fillColor=none;html=1;verticalAlign=middle;whiteSpace=wrap;rounded=0;fontStyle=1" vertex="1" parent="1">
          <mxGeometry x="410" y="440" width="130" height="50" as="geometry" />
        </mxCell>
        <mxCell id="9UhjAVeoC2yW7LXFhDXO-84" value="Subject:&lt;div&gt;Type:&lt;/div&gt;&lt;div&gt;Group:&lt;/div&gt;&lt;div&gt;Course&lt;/div&gt;" style="text;strokeColor=none;align=center;fillColor=none;html=1;verticalAlign=middle;whiteSpace=wrap;rounded=0;fontStyle=1" vertex="1" parent="1">
          <mxGeometry x="400" y="500" width="60" height="40" as="geometry" />
        </mxCell>
        <mxCell id="9UhjAVeoC2yW7LXFhDXO-86" value="" style="line;strokeWidth=2;html=1;" vertex="1" parent="1">
          <mxGeometry x="385" y="560" width="265" height="10" as="geometry" />
        </mxCell>
        <mxCell id="9UhjAVeoC2yW7LXFhDXO-88" value="Average Rating:" style="text;strokeColor=none;align=center;fillColor=none;html=1;verticalAlign=middle;whiteSpace=wrap;rounded=0;fontStyle=1" vertex="1" parent="1">
          <mxGeometry x="420" y="560" width="110" height="40" as="geometry" />
        </mxCell>
        <mxCell id="9UhjAVeoC2yW7LXFhDXO-89" value="" style="line;strokeWidth=2;html=1;" vertex="1" parent="1">
          <mxGeometry x="385" y="590" width="265" height="10" as="geometry" />
        </mxCell>
        <mxCell id="9UhjAVeoC2yW7LXFhDXO-91" value="Student Comments:" style="text;strokeColor=none;align=center;fillColor=none;html=1;verticalAlign=middle;whiteSpace=wrap;rounded=0;fontStyle=1" vertex="1" parent="1">
          <mxGeometry x="385" y="610" width="135" height="20" as="geometry" />
        </mxCell>
        <mxCell id="9UhjAVeoC2yW7LXFhDXO-92" value="" style="line;strokeWidth=2;html=1;" vertex="1" parent="1">
          <mxGeometry x="425" y="630" width="10" height="10" as="geometry" />
        </mxCell>
        <mxCell id="9UhjAVeoC2yW7LXFhDXO-93" value="" style="line;strokeWidth=2;html=1;" vertex="1" parent="1">
          <mxGeometry x="425" y="650" width="10" height="10" as="geometry" />
        </mxCell>
        <mxCell id="9UhjAVeoC2yW7LXFhDXO-96" value="" style="rounded=0;whiteSpace=wrap;html=1;" vertex="1" parent="1">
          <mxGeometry x="420" y="110" width="200" height="60" as="geometry" />
        </mxCell>
        <mxCell id="9UhjAVeoC2yW7LXFhDXO-97" value="Staff Panel" style="text;strokeColor=none;align=center;fillColor=none;html=1;verticalAlign=middle;whiteSpace=wrap;rounded=0;fontStyle=1;fontSize=15;" vertex="1" parent="1">
          <mxGeometry x="465" y="137.5" width="110" height="10" as="geometry" />
        </mxCell>
        <mxCell id="9UhjAVeoC2yW7LXFhDXO-98" value="" style="line;strokeWidth=2;html=1;" vertex="1" parent="1">
          <mxGeometry x="420" y="207.5" width="200" height="10" as="geometry" />
        </mxCell>
        <mxCell id="9UhjAVeoC2yW7LXFhDXO-99" value="" style="rounded=1;whiteSpace=wrap;html=1;" vertex="1" parent="1">
          <mxGeometry x="450" y="227.5" width="140" height="30" as="geometry" />
        </mxCell>
        <mxCell id="9UhjAVeoC2yW7LXFhDXO-102" value="" style="rounded=1;whiteSpace=wrap;html=1;" vertex="1" parent="1">
          <mxGeometry x="450" y="307.5" width="140" height="30" as="geometry" />
        </mxCell>
        <mxCell id="9UhjAVeoC2yW7LXFhDXO-103" value="Welcome, [Staff Name]" style="text;strokeColor=none;align=center;fillColor=none;html=1;verticalAlign=middle;whiteSpace=wrap;rounded=0;fontStyle=1" vertex="1" parent="1">
          <mxGeometry x="450" y="172.5" width="140" height="40" as="geometry" />
        </mxCell>
        <mxCell id="9UhjAVeoC2yW7LXFhDXO-104" value="View My Feedback" style="text;strokeColor=none;align=center;fillColor=none;html=1;verticalAlign=middle;whiteSpace=wrap;rounded=0;fontStyle=1" vertex="1" parent="1">
          <mxGeometry x="465" y="227.5" width="110" height="30" as="geometry" />
        </mxCell>
        <mxCell id="9UhjAVeoC2yW7LXFhDXO-106" value="LogOut" style="text;strokeColor=none;align=center;fillColor=none;html=1;verticalAlign=middle;whiteSpace=wrap;rounded=0;fontStyle=1" vertex="1" parent="1">
          <mxGeometry x="490" y="307.5" width="60" height="30" as="geometry" />
        </mxCell>
        <mxCell id="9UhjAVeoC2yW7LXFhDXO-110" value="" style="verticalLabelPosition=bottom;verticalAlign=top;html=1;shape=mxgraph.basic.star;whiteSpace=wrap;fillColor=default;gradientColor=none;" vertex="1" parent="1">
          <mxGeometry x="535" y="572.5" width="15" height="15" as="geometry" />
        </mxCell>
        <mxCell id="9UhjAVeoC2yW7LXFhDXO-111" value="" style="verticalLabelPosition=bottom;verticalAlign=top;html=1;shape=mxgraph.basic.star;whiteSpace=wrap;fillColor=default;gradientColor=none;" vertex="1" parent="1">
          <mxGeometry x="550" y="572.5" width="15" height="15" as="geometry" />
        </mxCell>
        <mxCell id="9UhjAVeoC2yW7LXFhDXO-112" value="" style="verticalLabelPosition=bottom;verticalAlign=top;html=1;shape=mxgraph.basic.star;whiteSpace=wrap;fillColor=default;gradientColor=none;" vertex="1" parent="1">
          <mxGeometry x="565" y="572.5" width="15" height="15" as="geometry" />
        </mxCell>
        <mxCell id="9UhjAVeoC2yW7LXFhDXO-113" value="" style="verticalLabelPosition=bottom;verticalAlign=top;html=1;shape=mxgraph.basic.star;whiteSpace=wrap;fillColor=default;gradientColor=none;" vertex="1" parent="1">
          <mxGeometry x="580" y="572.5" width="15" height="15" as="geometry" />
        </mxCell>
      </root>
    </mxGraphModel>
  </diagram>
</mxfile>
